<svg width="18" height="22" viewBox="0 0 18 22" fill="none" xmlns="http://www.w3.org/2000/svg">
<g clip-path="url(#clip0_2_13489)">
<path d="M0.345703 16.9336C0.345703 17.9427 0.601237 18.6996 1.11231 19.2041C1.62337 19.7086 2.38997 19.9609 3.41211 19.9609H14.9062C15.7786 19.9609 16.459 19.7086 16.9473 19.2041C17.4356 18.6996 17.6797 17.9427 17.6797 16.9336V6.82617C17.6797 5.81706 17.4225 5.06022 16.9082 4.55566C16.3939 4.05111 15.6289 3.79883 14.6133 3.79883H13.0508C13.0377 3.11524 12.8473 2.48535 12.4795 1.90918C12.1116 1.33301 11.625 0.870767 11.0195 0.522461C10.4141 0.174154 9.74349 0 9.00781 0C8.27213 0 7.60156 0.174154 6.99609 0.522461C6.39063 0.870767 5.9056 1.33301 5.54101 1.90918C5.17643 2.48535 4.98438 3.11524 4.96484 3.79883H3.41211C2.38997 3.79883 1.62337 4.05111 1.11231 4.55566C0.601237 5.06022 0.345703 5.81706 0.345703 6.82617V16.9336ZM1.91797 16.8555V6.9043C1.91797 6.39649 2.04818 6.014 2.30859 5.75684C2.56901 5.49967 2.94336 5.37109 3.43164 5.37109H14.584C15.0657 5.37109 15.4401 5.49967 15.707 5.75684C15.9739 6.014 16.1074 6.39649 16.1074 6.9043V16.8555C16.1074 17.3633 15.987 17.7458 15.7461 18.0029C15.5052 18.2601 15.2155 18.3887 14.8769 18.3887H3.43164C2.94336 18.3887 2.56901 18.2601 2.30859 18.0029C2.04818 17.7458 1.91797 17.3633 1.91797 16.8555ZM6.53711 3.79883C6.55013 3.37565 6.66732 2.98828 6.88867 2.63672C7.11003 2.28516 7.40462 2.00521 7.77246 1.79688C8.1403 1.58855 8.55209 1.48438 9.00781 1.48438C9.47005 1.48438 9.88509 1.58855 10.2529 1.79688C10.6208 2.00521 10.9137 2.28516 11.1318 2.63672C11.3499 2.98828 11.4655 3.37565 11.4785 3.79883H6.53711Z" fill="black" fill-opacity="0.85"/>
</g>
<defs>
<clipPath id="clip0_2_13489">
<rect width="17.334" height="21.9238" fill="white" transform="translate(0.345703)"/>
</clipPath>
</defs>
</svg>
