<?xml version="1.0" encoding="utf-8"?>
<!-- Generator: Adobe Illustrator 27.0.0, SVG Export Plug-In . SVG Version: 6.00 Build 0)  -->
<svg version="1.1" id="Layer_1" xmlns="http://www.w3.org/2000/svg" xmlns:xlink="http://www.w3.org/1999/xlink" x="0px" y="0px"
	 viewBox="0 0 700 700" style="enable-background:new 0 0 700 700;" xml:space="preserve">
<g>
	<path d="M114.8,169c-15.1,0-27.4-12.3-27.4-27.4s12.3-27.4,27.4-27.4h470.4c15.1,0,27.4,12.3,27.4,27.4S600.3,169,585.2,169H114.8z
		"/>
	<path d="M585.2,159H114.8c-9.5,0-17.4-7.8-17.4-17.4c0-9.5,7.8-17.4,17.4-17.4h470.4c9.5,0,17.4,7.8,17.4,17.4
		C602.6,151.2,594.7,159,585.2,159z"/>
	<path d="M114.8,377.4c-15.1,0-27.4-12.3-27.4-27.4c0-15.1,12.3-27.4,27.4-27.4h470.4c15.1,0,27.4,12.3,27.4,27.4
		c0,15.1-12.3,27.4-27.4,27.4H114.8z"/>
	<path d="M585.2,367.4H114.8c-9.5,0-17.4-7.8-17.4-17.4s7.8-17.4,17.4-17.4h470.4c9.5,0,17.4,7.8,17.4,17.4S594.7,367.4,585.2,367.4
		z"/>
	<path d="M114.8,585.7c-15.1,0-27.4-12.3-27.4-27.4S99.7,531,114.8,531h470.4c15.1,0,27.4,12.3,27.4,27.4s-12.3,27.4-27.4,27.4
		H114.8z"/>
	<path d="M585.2,575.7H114.8c-9.5,0-17.4-7.8-17.4-17.4c0-9.5,7.8-17.4,17.4-17.4h470.4c9.5,0,17.4,7.8,17.4,17.4
		C602.6,567.8,594.7,575.7,585.2,575.7z"/>
</g>
</svg>
